<?xml version="1.0" encoding="UTF-8" standalone="no"?>
<!DOCTYPE svg PUBLIC "-//W3C//DTD SVG 1.1//EN"
 "http://www.w3.org/Graphics/SVG/1.1/DTD/svg11.dtd">
<!-- Generated by graphviz version 2.38.0 (20140413.2041)
 -->
<!-- Title: itAux Pages: 1 -->
<svg width="217pt" height="1169pt"
 viewBox="0.00 0.00 217.00 1169.00" xmlns="http://www.w3.org/2000/svg" xmlns:xlink="http://www.w3.org/1999/xlink">
<g id="graph0" class="graph" transform="scale(1 1) rotate(0) translate(4 1165)">
<title>itAux</title>
<polygon fill="white" stroke="none" points="-4,4 -4,-1165 213,-1165 213,4 -4,4"/>
<!-- S0_0 -->
<g id="node1" class="node"><title>S0_0</title>
<ellipse fill="none" stroke="black" cx="18" cy="-18" rx="18" ry="18"/>
<text text-anchor="middle" x="18" y="-14.3" font-family="Times New Roman,serif" font-size="14.00">0</text>
</g>
<!-- S1_0 -->
<g id="node2" class="node"><title>S1_0</title>
<ellipse fill="none" stroke="black" cx="18" cy="-72" rx="18" ry="18"/>
<text text-anchor="middle" x="18" y="-68.3" font-family="Times New Roman,serif" font-size="14.00">0</text>
</g>
<!-- S2_0 -->
<g id="node3" class="node"><title>S2_0</title>
<ellipse fill="none" stroke="black" cx="18" cy="-126" rx="18" ry="18"/>
<text text-anchor="middle" x="18" y="-122.3" font-family="Times New Roman,serif" font-size="14.00">0</text>
</g>
<!-- S3_0 -->
<g id="node4" class="node"><title>S3_0</title>
<ellipse fill="none" stroke="black" cx="18" cy="-180" rx="18" ry="18"/>
<text text-anchor="middle" x="18" y="-176.3" font-family="Times New Roman,serif" font-size="14.00">0</text>
</g>
<!-- S4_0 -->
<g id="node5" class="node"><title>S4_0</title>
<ellipse fill="none" stroke="black" cx="18" cy="-234" rx="18" ry="18"/>
<text text-anchor="middle" x="18" y="-230.3" font-family="Times New Roman,serif" font-size="14.00">0</text>
</g>
<!-- S5_0 -->
<g id="node6" class="node"><title>S5_0</title>
<ellipse fill="none" stroke="black" cx="18" cy="-288" rx="18" ry="18"/>
<text text-anchor="middle" x="18" y="-284.3" font-family="Times New Roman,serif" font-size="14.00">0</text>
</g>
<!-- S6_0 -->
<g id="node7" class="node"><title>S6_0</title>
<ellipse fill="none" stroke="black" cx="18" cy="-342" rx="18" ry="18"/>
<text text-anchor="middle" x="18" y="-338.3" font-family="Times New Roman,serif" font-size="14.00">0</text>
</g>
<!-- S7_0 -->
<g id="node8" class="node"><title>S7_0</title>
<ellipse fill="none" stroke="black" cx="18" cy="-396" rx="18" ry="18"/>
<text text-anchor="middle" x="18" y="-392.3" font-family="Times New Roman,serif" font-size="14.00">0</text>
</g>
<!-- S8_0 -->
<g id="node9" class="node"><title>S8_0</title>
<ellipse fill="none" stroke="black" cx="18" cy="-450" rx="18" ry="18"/>
<text text-anchor="middle" x="18" y="-446.3" font-family="Times New Roman,serif" font-size="14.00">0</text>
</g>
<!-- S8_1 -->
<g id="node10" class="node"><title>S8_1</title>
<ellipse fill="none" stroke="black" cx="177" cy="-450" rx="18" ry="18"/>
<ellipse fill="none" stroke="black" cx="177" cy="-450" rx="22" ry="22"/>
<text text-anchor="middle" x="177" y="-446.3" font-family="Times New Roman,serif" font-size="14.00">1</text>
</g>
<!-- S8_0&#45;&gt;S8_1 -->
<g id="edge1" class="edge"><title>S8_0&#45;&gt;S8_1</title>
<path fill="none" stroke="black" d="M36.1006,-450C62.0913,-450 111.956,-450 144.593,-450"/>
<polygon fill="black" stroke="black" points="144.941,-453.5 154.941,-450 144.941,-446.5 144.941,-453.5"/>
<text text-anchor="middle" x="95.5" y="-453.8" font-family="Times New Roman,serif" font-size="14.00">D_18 : &lt;PAU&gt; | 0</text>
</g>
<!-- S9_0 -->
<g id="node11" class="node"><title>S9_0</title>
<ellipse fill="none" stroke="black" cx="18" cy="-512" rx="18" ry="18"/>
<text text-anchor="middle" x="18" y="-508.3" font-family="Times New Roman,serif" font-size="14.00">0</text>
</g>
<!-- S9_1 -->
<g id="node12" class="node"><title>S9_1</title>
<ellipse fill="none" stroke="black" cx="177" cy="-512" rx="18" ry="18"/>
<ellipse fill="none" stroke="black" cx="177" cy="-512" rx="22" ry="22"/>
<text text-anchor="middle" x="177" y="-508.3" font-family="Times New Roman,serif" font-size="14.00">1</text>
</g>
<!-- S9_0&#45;&gt;S9_1 -->
<g id="edge2" class="edge"><title>S9_0&#45;&gt;S9_1</title>
<path fill="none" stroke="black" d="M36.1006,-512C62.0913,-512 111.956,-512 144.593,-512"/>
<polygon fill="black" stroke="black" points="144.941,-515.5 154.941,-512 144.941,-508.5 144.941,-515.5"/>
<text text-anchor="middle" x="95.5" y="-515.8" font-family="Times New Roman,serif" font-size="14.00">ε : &lt;OOV&gt; | 0</text>
</g>
<!-- S9_1&#45;&gt;S9_1 -->
<g id="edge3" class="edge"><title>S9_1&#45;&gt;S9_1</title>
<path fill="none" stroke="black" d="M175.518,-534.212C175.397,-543.795 175.891,-552 177,-552 177.676,-552 178.124,-548.953 178.343,-544.405"/>
<polygon fill="black" stroke="black" points="181.845,-544.259 178.482,-534.212 174.845,-544.163 181.845,-544.259"/>
<text text-anchor="middle" x="177" y="-555.8" font-family="Times New Roman,serif" font-size="14.00">D_10 : ε | 0</text>
</g>
<!-- S9_1&#45;&gt;S9_1 -->
<g id="edge4" class="edge"><title>S9_1&#45;&gt;S9_1</title>
<path fill="none" stroke="black" d="M174.422,-534.019C173.391,-551.724 174.25,-570 177,-570 179.213,-570 180.202,-558.166 179.966,-544.318"/>
<polygon fill="black" stroke="black" points="183.452,-543.88 179.578,-534.019 176.457,-544.144 183.452,-543.88"/>
<text text-anchor="middle" x="177" y="-573.8" font-family="Times New Roman,serif" font-size="14.00">D_11 : ε | 0</text>
</g>
<!-- S9_1&#45;&gt;S9_1 -->
<g id="edge5" class="edge"><title>S9_1&#45;&gt;S9_1</title>
<path fill="none" stroke="black" d="M173.696,-533.784C171.352,-558.903 172.453,-588 177,-588 180.943,-588 182.295,-566.119 181.055,-543.926"/>
<polygon fill="black" stroke="black" points="184.533,-543.498 180.304,-533.784 177.553,-544.016 184.533,-543.498"/>
<text text-anchor="middle" x="177" y="-591.8" font-family="Times New Roman,serif" font-size="14.00">D_12 : ε | 0</text>
</g>
<!-- S9_1&#45;&gt;S9_1 -->
<g id="edge6" class="edge"><title>S9_1&#45;&gt;S9_1</title>
<path fill="none" stroke="black" d="M173.171,-533.714C169.318,-565.815 170.594,-606 177,-606 182.756,-606 184.37,-573.563 181.844,-543.694"/>
<polygon fill="black" stroke="black" points="185.323,-543.308 180.829,-533.714 178.359,-544.017 185.323,-543.308"/>
<text text-anchor="middle" x="177" y="-609.8" font-family="Times New Roman,serif" font-size="14.00">D_13 : ε | 0</text>
</g>
<!-- S9_1&#45;&gt;S9_1 -->
<g id="edge7" class="edge"><title>S9_1&#45;&gt;S9_1</title>
<path fill="none" stroke="black" d="M172.769,-533.716C167.289,-572.552 168.699,-624 177,-624 184.587,-624 186.418,-581.015 182.492,-543.967"/>
<polygon fill="black" stroke="black" points="185.925,-543.214 181.231,-533.716 178.978,-544.068 185.925,-543.214"/>
<text text-anchor="middle" x="177" y="-627.8" font-family="Times New Roman,serif" font-size="14.00">D_14 : ε | 0</text>
</g>
<!-- S9_1&#45;&gt;S9_1 -->
<g id="edge8" class="edge"><title>S9_1&#45;&gt;S9_1</title>
<path fill="none" stroke="black" d="M172.449,-533.736C165.264,-579.153 166.781,-642 177,-642 186.48,-642 188.471,-587.908 182.972,-543.825"/>
<polygon fill="black" stroke="black" points="186.411,-543.15 181.551,-533.736 179.48,-544.127 186.411,-543.15"/>
<text text-anchor="middle" x="177" y="-645.8" font-family="Times New Roman,serif" font-size="14.00">D_15 : ε | 0</text>
</g>
<!-- S9_1&#45;&gt;S9_1 -->
<g id="edge9" class="edge"><title>S9_1&#45;&gt;S9_1</title>
<path fill="none" stroke="black" d="M172.223,-533.57C163.24,-585.467 164.832,-660 177,-660 188.407,-660 190.52,-594.492 183.337,-543.542"/>
<polygon fill="black" stroke="black" points="186.781,-542.909 181.777,-533.57 179.865,-543.991 186.781,-542.909"/>
<text text-anchor="middle" x="177" y="-663.8" font-family="Times New Roman,serif" font-size="14.00">D_16 : ε | 0</text>
</g>
<!-- S9_1&#45;&gt;S9_1 -->
<g id="edge10" class="edge"><title>S9_1&#45;&gt;S9_1</title>
<path fill="none" stroke="black" d="M172.034,-533.466C161.22,-591.751 162.875,-678 177,-678 190.325,-678 192.553,-601.245 183.683,-543.618"/>
<polygon fill="black" stroke="black" points="187.085,-542.742 181.966,-533.466 180.183,-543.909 187.085,-542.742"/>
<text text-anchor="middle" x="177" y="-681.8" font-family="Times New Roman,serif" font-size="14.00">D_17 : ε | 0</text>
</g>
<!-- S9_1&#45;&gt;S9_1 -->
<g id="edge11" class="edge"><title>S9_1&#45;&gt;S9_1</title>
<path fill="none" stroke="black" d="M171.822,-533.661C159.208,-598.272 160.934,-696 177,-696 192.251,-696 194.58,-607.945 183.988,-543.743"/>
<polygon fill="black" stroke="black" points="187.39,-542.885 182.178,-533.661 180.501,-544.122 187.39,-542.885"/>
<text text-anchor="middle" x="177" y="-699.8" font-family="Times New Roman,serif" font-size="14.00">D_19 : ε | 0</text>
</g>
<!-- S9_1&#45;&gt;S9_1 -->
<g id="edge12" class="edge"><title>S9_1&#45;&gt;S9_1</title>
<path fill="none" stroke="black" d="M171.713,-533.465C157.191,-604.351 158.953,-714 177,-714 194.201,-714 196.608,-614.39 184.222,-543.673"/>
<polygon fill="black" stroke="black" points="187.588,-542.638 182.287,-533.465 180.711,-543.942 187.588,-542.638"/>
<text text-anchor="middle" x="177" y="-717.8" font-family="Times New Roman,serif" font-size="14.00">V_40 : ε | 0</text>
</g>
<!-- S9_1&#45;&gt;S9_1 -->
<g id="edge13" class="edge"><title>S9_1&#45;&gt;S9_1</title>
<path fill="none" stroke="black" d="M171.603,-533.382C155.178,-610.504 156.977,-732 177,-732 196.163,-732 198.634,-620.72 184.413,-543.556"/>
<polygon fill="black" stroke="black" points="187.774,-542.511 182.397,-533.382 180.908,-543.872 187.774,-542.511"/>
<text text-anchor="middle" x="177" y="-735.8" font-family="Times New Roman,serif" font-size="14.00">V_41 : ε | 0</text>
</g>
<!-- S9_1&#45;&gt;S9_1 -->
<g id="edge14" class="edge"><title>S9_1&#45;&gt;S9_1</title>
<path fill="none" stroke="black" d="M171.461,-533.526C153.169,-616.865 155.016,-750 177,-750 198.126,-750 200.656,-627.063 184.59,-543.509"/>
<polygon fill="black" stroke="black" points="187.98,-542.617 182.539,-533.526 181.123,-544.026 187.98,-542.617"/>
<text text-anchor="middle" x="177" y="-753.8" font-family="Times New Roman,serif" font-size="14.00">V_42 : ε | 0</text>
</g>
<!-- S9_1&#45;&gt;S9_1 -->
<g id="edge15" class="edge"><title>S9_1&#45;&gt;S9_1</title>
<path fill="none" stroke="black" d="M171.382,-533.44C151.159,-622.958 153.031,-768 177,-768 200.103,-768 202.677,-633.25 184.723,-543.352"/>
<polygon fill="black" stroke="black" points="188.119,-542.495 182.618,-533.44 181.272,-543.949 188.119,-542.495"/>
<text text-anchor="middle" x="177" y="-771.8" font-family="Times New Roman,serif" font-size="14.00">V_43 : ε | 0</text>
</g>
<!-- S9_1&#45;&gt;S9_1 -->
<g id="edge16" class="edge"><title>S9_1&#45;&gt;S9_1</title>
<path fill="none" stroke="black" d="M171.298,-533.431C149.15,-629.111 151.051,-786 177,-786 202.062,-786 204.692,-639.653 184.888,-543.447"/>
<polygon fill="black" stroke="black" points="188.254,-542.454 182.702,-533.431 181.415,-543.947 188.254,-542.454"/>
<text text-anchor="middle" x="177" y="-789.8" font-family="Times New Roman,serif" font-size="14.00">V_44 : ε | 0</text>
</g>
<!-- S9_1&#45;&gt;S9_1 -->
<g id="edge17" class="edge"><title>S9_1&#45;&gt;S9_1</title>
<path fill="none" stroke="black" d="M171.192,-533.553C147.144,-635.392 149.08,-804 177,-804 204.02,-804 206.704,-646.084 185.052,-543.599"/>
<polygon fill="black" stroke="black" points="188.403,-542.549 182.808,-533.553 181.572,-544.075 188.403,-542.549"/>
<text text-anchor="middle" x="177" y="-807.8" font-family="Times New Roman,serif" font-size="14.00">V_45 : ε | 0</text>
</g>
<!-- S9_1&#45;&gt;S9_1 -->
<g id="edge18" class="edge"><title>S9_1&#45;&gt;S9_1</title>
<path fill="none" stroke="black" d="M171.13,-533.523C145.137,-641.493 147.094,-822 177,-822 206.001,-822 208.719,-652.257 185.154,-543.522"/>
<polygon fill="black" stroke="black" points="188.509,-542.493 182.87,-533.523 181.685,-544.052 188.509,-542.493"/>
<text text-anchor="middle" x="177" y="-825.8" font-family="Times New Roman,serif" font-size="14.00">V_46 : ε | 0</text>
</g>
<!-- S9_1&#45;&gt;S9_1 -->
<g id="edge19" class="edge"><title>S9_1&#45;&gt;S9_1</title>
<path fill="none" stroke="black" d="M171.111,-533.345C143.129,-647.412 145.092,-840 177,-840 208.005,-840 210.736,-658.166 185.195,-543.219"/>
<polygon fill="black" stroke="black" points="188.571,-542.287 182.889,-533.345 181.755,-543.879 188.571,-542.287"/>
<text text-anchor="middle" x="177" y="-843.8" font-family="Times New Roman,serif" font-size="14.00">V_47 : ε | 0</text>
</g>
<!-- S9_1&#45;&gt;S9_1 -->
<g id="edge20" class="edge"><title>S9_1&#45;&gt;S9_1</title>
<path fill="none" stroke="black" d="M171.043,-533.392C141.124,-653.573 143.109,-858 177,-858 209.964,-858 212.744,-664.599 185.34,-543.433"/>
<polygon fill="black" stroke="black" points="188.672,-542.313 182.957,-533.392 181.861,-543.93 188.672,-542.313"/>
<text text-anchor="middle" x="177" y="-861.8" font-family="Times New Roman,serif" font-size="14.00">V_48 : ε | 0</text>
</g>
<!-- S9_1&#45;&gt;S9_1 -->
<g id="edge21" class="edge"><title>S9_1&#45;&gt;S9_1</title>
<path fill="none" stroke="black" d="M171.008,-533.327C139.118,-659.597 141.115,-876 177,-876 211.974,-876 214.759,-670.447 185.356,-543.114"/>
<polygon fill="black" stroke="black" points="188.742,-542.226 182.992,-533.327 181.938,-543.869 188.742,-542.226"/>
<text text-anchor="middle" x="177" y="-879.8" font-family="Times New Roman,serif" font-size="14.00">V_49 : ε | 0</text>
</g>
</g>
</svg>
