<?xml version="1.0" encoding="UTF-8" standalone="no"?>
<!DOCTYPE svg PUBLIC "-//W3C//DTD SVG 1.1//EN"
 "http://www.w3.org/Graphics/SVG/1.1/DTD/svg11.dtd">
<!-- Generated by graphviz version 2.38.0 (20140413.2041)
 -->
<!-- Title: GRM Pages: 1 -->
<svg width="201pt" height="294pt"
 viewBox="0.00 0.00 201.00 293.84" xmlns="http://www.w3.org/2000/svg" xmlns:xlink="http://www.w3.org/1999/xlink">
<g id="graph0" class="graph" transform="scale(1 1) rotate(0) translate(4 289.836)">
<title>GRM</title>
<polygon fill="white" stroke="none" points="-4,4 -4,-289.836 197,-289.836 197,4 -4,4"/>
<!-- S0_0 -->
<g id="node1" class="node"><title>S0_0</title>
<ellipse fill="none" stroke="black" cx="20" cy="-140.836" rx="18" ry="18"/>
<text text-anchor="middle" x="20" y="-137.136" font-family="Times New Roman,serif" font-size="14.00">S</text>
</g>
<!-- S0_0&#45;&gt;S0_0 -->
<g id="edge1" class="edge"><title>S0_0&#45;&gt;S0_0</title>
<path fill="none" stroke="black" d="M8.24353,-154.878C3.8468,-165.749 7.76563,-176.836 20,-176.836 28.4111,-176.836 32.8919,-171.596 33.4422,-164.788"/>
<polygon fill="black" stroke="black" points="36.884,-164.15 31.7565,-154.878 29.9831,-165.323 36.884,-164.15"/>
<text text-anchor="middle" x="20" y="-180.636" font-family="Times New Roman,serif" font-size="14.00">ε : ε | 0</text>
</g>
<!-- S0_1 -->
<g id="node2" class="node"><title>S0_1</title>
<ellipse fill="none" stroke="black" cx="171" cy="-140.836" rx="18" ry="18"/>
<ellipse fill="none" stroke="black" cx="171" cy="-140.836" rx="22" ry="22"/>
<text text-anchor="middle" x="171" y="-137.136" font-family="Times New Roman,serif" font-size="14.00">F</text>
</g>
<!-- S0_0&#45;&gt;S0_1 -->
<g id="edge3" class="edge"><title>S0_0&#45;&gt;S0_1</title>
<path fill="none" stroke="black" d="M22.4095,-159.081C25.0292,-187.538 31.7307,-240.423 46,-251.836 78.9728,-278.209 107.583,-277.644 141,-251.836 153.425,-242.24 161.544,-202.373 165.949,-173.153"/>
<polygon fill="black" stroke="black" points="169.458,-173.34 167.405,-162.946 162.528,-172.351 169.458,-173.34"/>
<text text-anchor="middle" x="93.5" y="-274.636" font-family="Times New Roman,serif" font-size="14.00">_C001 : C001 | 0</text>
</g>
<!-- S0_0&#45;&gt;S0_1 -->
<g id="edge4" class="edge"><title>S0_0&#45;&gt;S0_1</title>
<path fill="none" stroke="black" d="M21.5834,-159.002C23.2229,-176.292 28.6697,-201.453 46,-213.836 80.3533,-238.384 106.065,-237.549 141,-213.836 154.568,-204.627 161.788,-187.962 165.63,-172.878"/>
<polygon fill="black" stroke="black" points="169.117,-173.31 167.787,-162.799 162.272,-171.846 169.117,-173.31"/>
<text text-anchor="middle" x="93.5" y="-235.636" font-family="Times New Roman,serif" font-size="14.00">_C002 : C002 | 0</text>
</g>
<!-- S0_0&#45;&gt;S0_1 -->
<g id="edge5" class="edge"><title>S0_0&#45;&gt;S0_1</title>
<path fill="none" stroke="black" d="M28.3423,-157.234C32.4429,-164.315 38.298,-171.873 46,-175.836 83.5426,-195.156 102.789,-193.799 141,-175.836 145.294,-173.818 149.17,-170.817 152.589,-167.406"/>
<polygon fill="black" stroke="black" points="155.499,-169.388 159.325,-159.508 150.173,-164.846 155.499,-169.388"/>
<text text-anchor="middle" x="93.5" y="-192.636" font-family="Times New Roman,serif" font-size="14.00">_C005 : C005 | 0</text>
</g>
<!-- S0_0&#45;&gt;S0_1 -->
<g id="edge6" class="edge"><title>S0_0&#45;&gt;S0_1</title>
<path fill="none" stroke="black" d="M38.0922,-140.836C62.5716,-140.836 108.033,-140.836 138.652,-140.836"/>
<polygon fill="black" stroke="black" points="138.805,-144.336 148.805,-140.836 138.805,-137.336 138.805,-144.336"/>
<text text-anchor="middle" x="93.5" y="-144.636" font-family="Times New Roman,serif" font-size="14.00">_C010 : C010 | 0</text>
</g>
<!-- S0_0&#45;&gt;S0_1 -->
<g id="edge7" class="edge"><title>S0_0&#45;&gt;S0_1</title>
<path fill="none" stroke="black" d="M33.5538,-128.808C37.2778,-125.968 41.557,-123.333 46,-121.836 86.0128,-108.357 100.541,-109.763 141,-121.836 142.067,-122.155 143.131,-122.526 144.188,-122.942"/>
<polygon fill="black" stroke="black" points="142.842,-126.185 153.34,-127.613 146.024,-119.95 142.842,-126.185"/>
<text text-anchor="middle" x="93.5" y="-125.636" font-family="Times New Roman,serif" font-size="14.00">_C020 : C020 | 0</text>
</g>
<!-- S0_0&#45;&gt;S0_1 -->
<g id="edge8" class="edge"><title>S0_0&#45;&gt;S0_1</title>
<path fill="none" stroke="black" d="M25.1281,-123.452C28.7021,-112.597 35.0749,-99.4643 46,-92.8364 82.0986,-70.9364 104.226,-72.0897 141,-92.8364 148.274,-96.9402 153.929,-103.683 158.234,-110.836"/>
<polygon fill="black" stroke="black" points="155.258,-112.698 162.985,-119.948 161.465,-109.462 155.258,-112.698"/>
<text text-anchor="middle" x="93.5" y="-96.6364" font-family="Times New Roman,serif" font-size="14.00">_C050 : C050 | 0</text>
</g>
<!-- S0_0&#45;&gt;S0_1 -->
<g id="edge9" class="edge"><title>S0_0&#45;&gt;S0_1</title>
<path fill="none" stroke="black" d="M20.6625,-122.799C21.39,-103.213 25.9492,-72.7376 46,-57.8364 79.8885,-32.6514 106.571,-33.3957 141,-57.8364 157.203,-69.3383 164.426,-90.6042 167.612,-108.73"/>
<polygon fill="black" stroke="black" points="164.152,-109.262 169.029,-118.668 171.082,-108.274 164.152,-109.262"/>
<text text-anchor="middle" x="93.5" y="-61.6364" font-family="Times New Roman,serif" font-size="14.00">_C100 : C100 | 0</text>
</g>
<!-- S0_0&#45;&gt;S0_1 -->
<g id="edge10" class="edge"><title>S0_0&#45;&gt;S0_1</title>
<path fill="none" stroke="black" d="M22.0112,-122.941C24.1466,-92.4894 30.283,-32.638 46,-19.8364 78.737,6.82825 107.847,6.30956 141,-19.8364 154.791,-30.7129 162.763,-76.596 166.744,-108.623"/>
<polygon fill="black" stroke="black" points="163.306,-109.357 167.944,-118.882 170.259,-108.543 163.306,-109.357"/>
<text text-anchor="middle" x="93.5" y="-23.6364" font-family="Times New Roman,serif" font-size="14.00">_C200 : C200 | 0</text>
</g>
<!-- S0_1&#45;&gt;S0_1 -->
<g id="edge2" class="edge"><title>S0_1&#45;&gt;S0_1</title>
<path fill="none" stroke="black" d="M157.877,-158.521C154.454,-169.892 158.828,-180.836 171,-180.836 179.368,-180.836 184.051,-175.664 185.048,-168.735"/>
<polygon fill="black" stroke="black" points="188.51,-168.164 184.123,-158.521 181.539,-168.796 188.51,-168.164"/>
<text text-anchor="middle" x="171" y="-184.636" font-family="Times New Roman,serif" font-size="14.00">ε : ε | 0</text>
</g>
</g>
</svg>
