<?xml version="1.0" encoding="UTF-8" standalone="no"?>
<!DOCTYPE svg PUBLIC "-//W3C//DTD SVG 1.1//EN"
 "http://www.w3.org/Graphics/SVG/1.1/DTD/svg11.dtd">
<!-- Generated by graphviz version 2.38.0 (20140413.2041)
 -->
<!-- Title: GRM Pages: 1 -->
<svg width="237pt" height="294pt"
 viewBox="0.00 0.00 237.00 293.84" xmlns="http://www.w3.org/2000/svg" xmlns:xlink="http://www.w3.org/1999/xlink">
<g id="graph0" class="graph" transform="scale(1 1) rotate(0) translate(4 289.836)">
<title>GRM</title>
<polygon fill="white" stroke="none" points="-4,4 -4,-289.836 233,-289.836 233,4 -4,4"/>
<!-- S0_0 -->
<g id="node1" class="node"><title>S0_0</title>
<ellipse fill="none" stroke="black" cx="39" cy="-140.836" rx="18" ry="18"/>
<text text-anchor="middle" x="39" y="-137.136" font-family="Times New Roman,serif" font-size="14.00">S</text>
</g>
<!-- S0_0&#45;&gt;S0_0 -->
<g id="edge1" class="edge"><title>S0_0&#45;&gt;S0_0</title>
<path fill="none" stroke="black" d="M27.2435,-154.878C22.8468,-165.749 26.7656,-176.836 39,-176.836 47.4111,-176.836 51.8919,-171.596 52.4422,-164.788"/>
<polygon fill="black" stroke="black" points="55.884,-164.15 50.7565,-154.878 48.9831,-165.323 55.884,-164.15"/>
<text text-anchor="middle" x="39" y="-180.636" font-family="Times New Roman,serif" font-size="14.00">&lt;PAU&gt; : ε | 0</text>
</g>
<!-- S0_1 -->
<g id="node2" class="node"><title>S0_1</title>
<ellipse fill="none" stroke="black" cx="190" cy="-140.836" rx="18" ry="18"/>
<ellipse fill="none" stroke="black" cx="190" cy="-140.836" rx="22" ry="22"/>
<text text-anchor="middle" x="190" y="-137.136" font-family="Times New Roman,serif" font-size="14.00">F</text>
</g>
<!-- S0_0&#45;&gt;S0_1 -->
<g id="edge3" class="edge"><title>S0_0&#45;&gt;S0_1</title>
<path fill="none" stroke="black" d="M41.4095,-159.081C44.0292,-187.538 50.7307,-240.423 65,-251.836 97.9728,-278.209 126.583,-277.644 160,-251.836 172.425,-242.24 180.544,-202.373 184.949,-173.153"/>
<polygon fill="black" stroke="black" points="188.458,-173.34 186.405,-162.946 181.528,-172.351 188.458,-173.34"/>
<text text-anchor="middle" x="112.5" y="-274.636" font-family="Times New Roman,serif" font-size="14.00">_C001 : C001 | 0</text>
</g>
<!-- S0_0&#45;&gt;S0_1 -->
<g id="edge4" class="edge"><title>S0_0&#45;&gt;S0_1</title>
<path fill="none" stroke="black" d="M40.5834,-159.002C42.2229,-176.292 47.6697,-201.453 65,-213.836 99.3533,-238.384 125.065,-237.549 160,-213.836 173.568,-204.627 180.788,-187.962 184.63,-172.878"/>
<polygon fill="black" stroke="black" points="188.117,-173.31 186.787,-162.799 181.272,-171.846 188.117,-173.31"/>
<text text-anchor="middle" x="112.5" y="-235.636" font-family="Times New Roman,serif" font-size="14.00">_C002 : C002 | 0</text>
</g>
<!-- S0_0&#45;&gt;S0_1 -->
<g id="edge5" class="edge"><title>S0_0&#45;&gt;S0_1</title>
<path fill="none" stroke="black" d="M47.3423,-157.234C51.4429,-164.315 57.298,-171.873 65,-175.836 102.543,-195.156 121.789,-193.799 160,-175.836 164.294,-173.818 168.17,-170.817 171.589,-167.406"/>
<polygon fill="black" stroke="black" points="174.499,-169.388 178.325,-159.508 169.173,-164.846 174.499,-169.388"/>
<text text-anchor="middle" x="112.5" y="-192.636" font-family="Times New Roman,serif" font-size="14.00">_C005 : C005 | 0</text>
</g>
<!-- S0_0&#45;&gt;S0_1 -->
<g id="edge6" class="edge"><title>S0_0&#45;&gt;S0_1</title>
<path fill="none" stroke="black" d="M57.0922,-140.836C81.5716,-140.836 127.033,-140.836 157.652,-140.836"/>
<polygon fill="black" stroke="black" points="157.805,-144.336 167.805,-140.836 157.805,-137.336 157.805,-144.336"/>
<text text-anchor="middle" x="112.5" y="-144.636" font-family="Times New Roman,serif" font-size="14.00">_C010 : C010 | 0</text>
</g>
<!-- S0_0&#45;&gt;S0_1 -->
<g id="edge7" class="edge"><title>S0_0&#45;&gt;S0_1</title>
<path fill="none" stroke="black" d="M52.5538,-128.808C56.2778,-125.968 60.557,-123.333 65,-121.836 105.013,-108.357 119.541,-109.763 160,-121.836 161.067,-122.155 162.131,-122.526 163.188,-122.942"/>
<polygon fill="black" stroke="black" points="161.842,-126.185 172.34,-127.613 165.024,-119.95 161.842,-126.185"/>
<text text-anchor="middle" x="112.5" y="-125.636" font-family="Times New Roman,serif" font-size="14.00">_C020 : C020 | 0</text>
</g>
<!-- S0_0&#45;&gt;S0_1 -->
<g id="edge8" class="edge"><title>S0_0&#45;&gt;S0_1</title>
<path fill="none" stroke="black" d="M44.1281,-123.452C47.7021,-112.597 54.0749,-99.4643 65,-92.8364 101.099,-70.9364 123.226,-72.0897 160,-92.8364 167.274,-96.9402 172.929,-103.683 177.234,-110.836"/>
<polygon fill="black" stroke="black" points="174.258,-112.698 181.985,-119.948 180.465,-109.462 174.258,-112.698"/>
<text text-anchor="middle" x="112.5" y="-96.6364" font-family="Times New Roman,serif" font-size="14.00">_C050 : C050 | 0</text>
</g>
<!-- S0_0&#45;&gt;S0_1 -->
<g id="edge9" class="edge"><title>S0_0&#45;&gt;S0_1</title>
<path fill="none" stroke="black" d="M39.6625,-122.799C40.39,-103.213 44.9492,-72.7376 65,-57.8364 98.8885,-32.6514 125.571,-33.3957 160,-57.8364 176.203,-69.3383 183.426,-90.6042 186.612,-108.73"/>
<polygon fill="black" stroke="black" points="183.152,-109.262 188.029,-118.668 190.082,-108.274 183.152,-109.262"/>
<text text-anchor="middle" x="112.5" y="-61.6364" font-family="Times New Roman,serif" font-size="14.00">_C100 : C100 | 0</text>
</g>
<!-- S0_0&#45;&gt;S0_1 -->
<g id="edge10" class="edge"><title>S0_0&#45;&gt;S0_1</title>
<path fill="none" stroke="black" d="M41.0112,-122.941C43.1466,-92.4894 49.283,-32.638 65,-19.8364 97.737,6.82825 126.847,6.30956 160,-19.8364 173.791,-30.7129 181.763,-76.596 185.744,-108.623"/>
<polygon fill="black" stroke="black" points="182.306,-109.357 186.944,-118.882 189.259,-108.543 182.306,-109.357"/>
<text text-anchor="middle" x="112.5" y="-23.6364" font-family="Times New Roman,serif" font-size="14.00">_C200 : C200 | 0</text>
</g>
<!-- S0_1&#45;&gt;S0_1 -->
<g id="edge2" class="edge"><title>S0_1&#45;&gt;S0_1</title>
<path fill="none" stroke="black" d="M176.877,-158.521C173.454,-169.892 177.828,-180.836 190,-180.836 198.368,-180.836 203.051,-175.664 204.048,-168.735"/>
<polygon fill="black" stroke="black" points="207.51,-168.164 203.123,-158.521 200.539,-168.796 207.51,-168.164"/>
<text text-anchor="middle" x="190" y="-184.636" font-family="Times New Roman,serif" font-size="14.00">&lt;PAU&gt; : ε | 0</text>
</g>
</g>
</svg>
