<?xml version="1.0" encoding="UTF-8" standalone="no"?>
<!DOCTYPE svg PUBLIC "-//W3C//DTD SVG 1.1//EN"
 "http://www.w3.org/Graphics/SVG/1.1/DTD/svg11.dtd">
<!-- Generated by graphviz version 2.38.0 (20140413.2041)
 -->
<!-- Title: itAux Pages: 1 -->
<svg width="216pt" height="1169pt"
 viewBox="0.00 0.00 216.00 1169.00" xmlns="http://www.w3.org/2000/svg" xmlns:xlink="http://www.w3.org/1999/xlink">
<g id="graph0" class="graph" transform="scale(1 1) rotate(0) translate(4 1165)">
<title>itAux</title>
<polygon fill="white" stroke="none" points="-4,4 -4,-1165 212,-1165 212,4 -4,4"/>
<!-- S0_0 -->
<g id="node1" class="node"><title>S0_0</title>
<ellipse fill="none" stroke="black" cx="18" cy="-18" rx="18" ry="18"/>
<text text-anchor="middle" x="18" y="-14.3" font-family="Times New Roman,serif" font-size="14.00">0</text>
</g>
<!-- S1_0 -->
<g id="node2" class="node"><title>S1_0</title>
<ellipse fill="none" stroke="black" cx="18" cy="-72" rx="18" ry="18"/>
<text text-anchor="middle" x="18" y="-68.3" font-family="Times New Roman,serif" font-size="14.00">0</text>
</g>
<!-- S2_0 -->
<g id="node3" class="node"><title>S2_0</title>
<ellipse fill="none" stroke="black" cx="18" cy="-126" rx="18" ry="18"/>
<text text-anchor="middle" x="18" y="-122.3" font-family="Times New Roman,serif" font-size="14.00">0</text>
</g>
<!-- S3_0 -->
<g id="node4" class="node"><title>S3_0</title>
<ellipse fill="none" stroke="black" cx="18" cy="-180" rx="18" ry="18"/>
<text text-anchor="middle" x="18" y="-176.3" font-family="Times New Roman,serif" font-size="14.00">0</text>
</g>
<!-- S4_0 -->
<g id="node5" class="node"><title>S4_0</title>
<ellipse fill="none" stroke="black" cx="18" cy="-234" rx="18" ry="18"/>
<text text-anchor="middle" x="18" y="-230.3" font-family="Times New Roman,serif" font-size="14.00">0</text>
</g>
<!-- S5_0 -->
<g id="node6" class="node"><title>S5_0</title>
<ellipse fill="none" stroke="black" cx="18" cy="-288" rx="18" ry="18"/>
<text text-anchor="middle" x="18" y="-284.3" font-family="Times New Roman,serif" font-size="14.00">0</text>
</g>
<!-- S6_0 -->
<g id="node7" class="node"><title>S6_0</title>
<ellipse fill="none" stroke="black" cx="18" cy="-342" rx="18" ry="18"/>
<text text-anchor="middle" x="18" y="-338.3" font-family="Times New Roman,serif" font-size="14.00">0</text>
</g>
<!-- S7_0 -->
<g id="node8" class="node"><title>S7_0</title>
<ellipse fill="none" stroke="black" cx="18" cy="-396" rx="18" ry="18"/>
<text text-anchor="middle" x="18" y="-392.3" font-family="Times New Roman,serif" font-size="14.00">0</text>
</g>
<!-- S8_0 -->
<g id="node9" class="node"><title>S8_0</title>
<ellipse fill="none" stroke="black" cx="18" cy="-450" rx="18" ry="18"/>
<text text-anchor="middle" x="18" y="-446.3" font-family="Times New Roman,serif" font-size="14.00">0</text>
</g>
<!-- S8_1 -->
<g id="node10" class="node"><title>S8_1</title>
<ellipse fill="none" stroke="black" cx="176" cy="-450" rx="18" ry="18"/>
<ellipse fill="none" stroke="black" cx="176" cy="-450" rx="22" ry="22"/>
<text text-anchor="middle" x="176" y="-446.3" font-family="Times New Roman,serif" font-size="14.00">1</text>
</g>
<!-- S8_0&#45;&gt;S8_1 -->
<g id="edge1" class="edge"><title>S8_0&#45;&gt;S8_1</title>
<path fill="none" stroke="black" d="M36.2908,-450C62.1626,-450 111.355,-450 143.661,-450"/>
<polygon fill="black" stroke="black" points="143.912,-453.5 153.912,-450 143.912,-446.5 143.912,-453.5"/>
<text text-anchor="middle" x="95" y="-453.8" font-family="Times New Roman,serif" font-size="14.00">D018 : &lt;PAU&gt; | 0</text>
</g>
<!-- S9_0 -->
<g id="node11" class="node"><title>S9_0</title>
<ellipse fill="none" stroke="black" cx="18" cy="-512" rx="18" ry="18"/>
<text text-anchor="middle" x="18" y="-508.3" font-family="Times New Roman,serif" font-size="14.00">0</text>
</g>
<!-- S9_1 -->
<g id="node12" class="node"><title>S9_1</title>
<ellipse fill="none" stroke="black" cx="176" cy="-512" rx="18" ry="18"/>
<ellipse fill="none" stroke="black" cx="176" cy="-512" rx="22" ry="22"/>
<text text-anchor="middle" x="176" y="-508.3" font-family="Times New Roman,serif" font-size="14.00">1</text>
</g>
<!-- S9_0&#45;&gt;S9_1 -->
<g id="edge2" class="edge"><title>S9_0&#45;&gt;S9_1</title>
<path fill="none" stroke="black" d="M36.2908,-512C62.1626,-512 111.355,-512 143.661,-512"/>
<polygon fill="black" stroke="black" points="143.912,-515.5 153.912,-512 143.912,-508.5 143.912,-515.5"/>
<text text-anchor="middle" x="95" y="-515.8" font-family="Times New Roman,serif" font-size="14.00">ε : &lt;OOV&gt; | 0</text>
</g>
<!-- S9_1&#45;&gt;S9_1 -->
<g id="edge3" class="edge"><title>S9_1&#45;&gt;S9_1</title>
<path fill="none" stroke="black" d="M174.518,-534.212C174.397,-543.795 174.891,-552 176,-552 176.676,-552 177.124,-548.953 177.343,-544.405"/>
<polygon fill="black" stroke="black" points="180.845,-544.259 177.482,-534.212 173.845,-544.163 180.845,-544.259"/>
<text text-anchor="middle" x="176" y="-555.8" font-family="Times New Roman,serif" font-size="14.00">D010 : ε | 0</text>
</g>
<!-- S9_1&#45;&gt;S9_1 -->
<g id="edge4" class="edge"><title>S9_1&#45;&gt;S9_1</title>
<path fill="none" stroke="black" d="M173.422,-534.019C172.391,-551.724 173.25,-570 176,-570 178.213,-570 179.202,-558.166 178.966,-544.318"/>
<polygon fill="black" stroke="black" points="182.452,-543.88 178.578,-534.019 175.457,-544.144 182.452,-543.88"/>
<text text-anchor="middle" x="176" y="-573.8" font-family="Times New Roman,serif" font-size="14.00">D011 : ε | 0</text>
</g>
<!-- S9_1&#45;&gt;S9_1 -->
<g id="edge5" class="edge"><title>S9_1&#45;&gt;S9_1</title>
<path fill="none" stroke="black" d="M172.696,-533.784C170.352,-558.903 171.453,-588 176,-588 179.943,-588 181.295,-566.119 180.055,-543.926"/>
<polygon fill="black" stroke="black" points="183.533,-543.498 179.304,-533.784 176.553,-544.016 183.533,-543.498"/>
<text text-anchor="middle" x="176" y="-591.8" font-family="Times New Roman,serif" font-size="14.00">D012 : ε | 0</text>
</g>
<!-- S9_1&#45;&gt;S9_1 -->
<g id="edge6" class="edge"><title>S9_1&#45;&gt;S9_1</title>
<path fill="none" stroke="black" d="M172.171,-533.714C168.318,-565.815 169.594,-606 176,-606 181.756,-606 183.37,-573.563 180.844,-543.694"/>
<polygon fill="black" stroke="black" points="184.323,-543.308 179.829,-533.714 177.359,-544.017 184.323,-543.308"/>
<text text-anchor="middle" x="176" y="-609.8" font-family="Times New Roman,serif" font-size="14.00">D013 : ε | 0</text>
</g>
<!-- S9_1&#45;&gt;S9_1 -->
<g id="edge7" class="edge"><title>S9_1&#45;&gt;S9_1</title>
<path fill="none" stroke="black" d="M171.769,-533.716C166.289,-572.552 167.699,-624 176,-624 183.587,-624 185.418,-581.015 181.492,-543.967"/>
<polygon fill="black" stroke="black" points="184.925,-543.214 180.231,-533.716 177.978,-544.068 184.925,-543.214"/>
<text text-anchor="middle" x="176" y="-627.8" font-family="Times New Roman,serif" font-size="14.00">D014 : ε | 0</text>
</g>
<!-- S9_1&#45;&gt;S9_1 -->
<g id="edge8" class="edge"><title>S9_1&#45;&gt;S9_1</title>
<path fill="none" stroke="black" d="M171.449,-533.736C164.264,-579.153 165.781,-642 176,-642 185.48,-642 187.471,-587.908 181.972,-543.825"/>
<polygon fill="black" stroke="black" points="185.411,-543.15 180.551,-533.736 178.48,-544.127 185.411,-543.15"/>
<text text-anchor="middle" x="176" y="-645.8" font-family="Times New Roman,serif" font-size="14.00">D015 : ε | 0</text>
</g>
<!-- S9_1&#45;&gt;S9_1 -->
<g id="edge9" class="edge"><title>S9_1&#45;&gt;S9_1</title>
<path fill="none" stroke="black" d="M171.223,-533.57C162.24,-585.467 163.832,-660 176,-660 187.407,-660 189.52,-594.492 182.337,-543.542"/>
<polygon fill="black" stroke="black" points="185.781,-542.909 180.777,-533.57 178.865,-543.991 185.781,-542.909"/>
<text text-anchor="middle" x="176" y="-663.8" font-family="Times New Roman,serif" font-size="14.00">D016 : ε | 0</text>
</g>
<!-- S9_1&#45;&gt;S9_1 -->
<g id="edge10" class="edge"><title>S9_1&#45;&gt;S9_1</title>
<path fill="none" stroke="black" d="M171.034,-533.466C160.22,-591.751 161.875,-678 176,-678 189.325,-678 191.553,-601.245 182.683,-543.618"/>
<polygon fill="black" stroke="black" points="186.085,-542.742 180.966,-533.466 179.183,-543.909 186.085,-542.742"/>
<text text-anchor="middle" x="176" y="-681.8" font-family="Times New Roman,serif" font-size="14.00">D017 : ε | 0</text>
</g>
<!-- S9_1&#45;&gt;S9_1 -->
<g id="edge11" class="edge"><title>S9_1&#45;&gt;S9_1</title>
<path fill="none" stroke="black" d="M170.822,-533.661C158.208,-598.272 159.934,-696 176,-696 191.251,-696 193.58,-607.945 182.988,-543.743"/>
<polygon fill="black" stroke="black" points="186.39,-542.885 181.178,-533.661 179.501,-544.122 186.39,-542.885"/>
<text text-anchor="middle" x="176" y="-699.8" font-family="Times New Roman,serif" font-size="14.00">D019 : ε | 0</text>
</g>
<!-- S9_1&#45;&gt;S9_1 -->
<g id="edge12" class="edge"><title>S9_1&#45;&gt;S9_1</title>
<path fill="none" stroke="black" d="M170.713,-533.465C156.191,-604.351 157.953,-714 176,-714 193.201,-714 195.608,-614.39 183.222,-543.673"/>
<polygon fill="black" stroke="black" points="186.588,-542.638 181.287,-533.465 179.711,-543.942 186.588,-542.638"/>
<text text-anchor="middle" x="176" y="-717.8" font-family="Times New Roman,serif" font-size="14.00">V040 : ε | 0</text>
</g>
<!-- S9_1&#45;&gt;S9_1 -->
<g id="edge13" class="edge"><title>S9_1&#45;&gt;S9_1</title>
<path fill="none" stroke="black" d="M170.603,-533.382C154.178,-610.504 155.977,-732 176,-732 195.163,-732 197.634,-620.72 183.413,-543.556"/>
<polygon fill="black" stroke="black" points="186.774,-542.511 181.397,-533.382 179.908,-543.872 186.774,-542.511"/>
<text text-anchor="middle" x="176" y="-735.8" font-family="Times New Roman,serif" font-size="14.00">V041 : ε | 0</text>
</g>
<!-- S9_1&#45;&gt;S9_1 -->
<g id="edge14" class="edge"><title>S9_1&#45;&gt;S9_1</title>
<path fill="none" stroke="black" d="M170.461,-533.526C152.169,-616.865 154.016,-750 176,-750 197.126,-750 199.656,-627.063 183.59,-543.509"/>
<polygon fill="black" stroke="black" points="186.98,-542.617 181.539,-533.526 180.123,-544.026 186.98,-542.617"/>
<text text-anchor="middle" x="176" y="-753.8" font-family="Times New Roman,serif" font-size="14.00">V042 : ε | 0</text>
</g>
<!-- S9_1&#45;&gt;S9_1 -->
<g id="edge15" class="edge"><title>S9_1&#45;&gt;S9_1</title>
<path fill="none" stroke="black" d="M170.382,-533.44C150.159,-622.958 152.031,-768 176,-768 199.103,-768 201.677,-633.25 183.723,-543.352"/>
<polygon fill="black" stroke="black" points="187.119,-542.495 181.618,-533.44 180.272,-543.949 187.119,-542.495"/>
<text text-anchor="middle" x="176" y="-771.8" font-family="Times New Roman,serif" font-size="14.00">V043 : ε | 0</text>
</g>
<!-- S9_1&#45;&gt;S9_1 -->
<g id="edge16" class="edge"><title>S9_1&#45;&gt;S9_1</title>
<path fill="none" stroke="black" d="M170.298,-533.431C148.15,-629.111 150.051,-786 176,-786 201.062,-786 203.692,-639.653 183.888,-543.447"/>
<polygon fill="black" stroke="black" points="187.254,-542.454 181.702,-533.431 180.415,-543.947 187.254,-542.454"/>
<text text-anchor="middle" x="176" y="-789.8" font-family="Times New Roman,serif" font-size="14.00">V044 : ε | 0</text>
</g>
<!-- S9_1&#45;&gt;S9_1 -->
<g id="edge17" class="edge"><title>S9_1&#45;&gt;S9_1</title>
<path fill="none" stroke="black" d="M170.192,-533.553C146.144,-635.392 148.08,-804 176,-804 203.02,-804 205.704,-646.084 184.052,-543.599"/>
<polygon fill="black" stroke="black" points="187.403,-542.549 181.808,-533.553 180.572,-544.075 187.403,-542.549"/>
<text text-anchor="middle" x="176" y="-807.8" font-family="Times New Roman,serif" font-size="14.00">V045 : ε | 0</text>
</g>
<!-- S9_1&#45;&gt;S9_1 -->
<g id="edge18" class="edge"><title>S9_1&#45;&gt;S9_1</title>
<path fill="none" stroke="black" d="M170.13,-533.523C144.137,-641.493 146.094,-822 176,-822 205.001,-822 207.719,-652.257 184.154,-543.522"/>
<polygon fill="black" stroke="black" points="187.509,-542.493 181.87,-533.523 180.685,-544.052 187.509,-542.493"/>
<text text-anchor="middle" x="176" y="-825.8" font-family="Times New Roman,serif" font-size="14.00">V046 : ε | 0</text>
</g>
<!-- S9_1&#45;&gt;S9_1 -->
<g id="edge19" class="edge"><title>S9_1&#45;&gt;S9_1</title>
<path fill="none" stroke="black" d="M170.111,-533.345C142.129,-647.412 144.092,-840 176,-840 207.005,-840 209.736,-658.166 184.195,-543.219"/>
<polygon fill="black" stroke="black" points="187.571,-542.287 181.889,-533.345 180.755,-543.879 187.571,-542.287"/>
<text text-anchor="middle" x="176" y="-843.8" font-family="Times New Roman,serif" font-size="14.00">V047 : ε | 0</text>
</g>
<!-- S9_1&#45;&gt;S9_1 -->
<g id="edge20" class="edge"><title>S9_1&#45;&gt;S9_1</title>
<path fill="none" stroke="black" d="M170.043,-533.392C140.124,-653.573 142.109,-858 176,-858 208.964,-858 211.744,-664.599 184.34,-543.433"/>
<polygon fill="black" stroke="black" points="187.672,-542.313 181.957,-533.392 180.861,-543.93 187.672,-542.313"/>
<text text-anchor="middle" x="176" y="-861.8" font-family="Times New Roman,serif" font-size="14.00">V048 : ε | 0</text>
</g>
<!-- S9_1&#45;&gt;S9_1 -->
<g id="edge21" class="edge"><title>S9_1&#45;&gt;S9_1</title>
<path fill="none" stroke="black" d="M170.008,-533.327C138.118,-659.597 140.115,-876 176,-876 210.974,-876 213.759,-670.447 184.356,-543.114"/>
<polygon fill="black" stroke="black" points="187.742,-542.226 181.992,-533.327 180.938,-543.869 187.742,-542.226"/>
<text text-anchor="middle" x="176" y="-879.8" font-family="Times New Roman,serif" font-size="14.00">V049 : ε | 0</text>
</g>
</g>
</svg>
