<?xml version="1.0" encoding="UTF-8" standalone="no"?>
<!DOCTYPE svg PUBLIC "-//W3C//DTD SVG 1.1//EN"
 "http://www.w3.org/Graphics/SVG/1.1/DTD/svg11.dtd">
<!-- Generated by graphviz version 2.38.0 (20140413.2041)
 -->
<!-- Title: itAux Pages: 1 -->
<svg width="185pt" height="546pt"
 viewBox="0.00 0.00 185.00 546.00" xmlns="http://www.w3.org/2000/svg" xmlns:xlink="http://www.w3.org/1999/xlink">
<g id="graph0" class="graph" transform="scale(1 1) rotate(0) translate(4 542)">
<title>itAux</title>
<polygon fill="white" stroke="none" points="-4,4 -4,-542 181,-542 181,4 -4,4"/>
<!-- S0_0 -->
<g id="node1" class="node"><title>S0_0</title>
<ellipse fill="none" stroke="black" cx="18" cy="-18" rx="18" ry="18"/>
<text text-anchor="middle" x="18" y="-14.3" font-family="Times New Roman,serif" font-size="14.00">0</text>
</g>
<!-- S1_0 -->
<g id="node2" class="node"><title>S1_0</title>
<ellipse fill="none" stroke="black" cx="18" cy="-72" rx="18" ry="18"/>
<text text-anchor="middle" x="18" y="-68.3" font-family="Times New Roman,serif" font-size="14.00">0</text>
</g>
<!-- S2_0 -->
<g id="node3" class="node"><title>S2_0</title>
<ellipse fill="none" stroke="black" cx="18" cy="-126" rx="18" ry="18"/>
<text text-anchor="middle" x="18" y="-122.3" font-family="Times New Roman,serif" font-size="14.00">0</text>
</g>
<!-- S3_0 -->
<g id="node4" class="node"><title>S3_0</title>
<ellipse fill="none" stroke="black" cx="18" cy="-180" rx="18" ry="18"/>
<text text-anchor="middle" x="18" y="-176.3" font-family="Times New Roman,serif" font-size="14.00">0</text>
</g>
<!-- S4_0 -->
<g id="node5" class="node"><title>S4_0</title>
<ellipse fill="none" stroke="black" cx="18" cy="-234" rx="18" ry="18"/>
<text text-anchor="middle" x="18" y="-230.3" font-family="Times New Roman,serif" font-size="14.00">0</text>
</g>
<!-- S5_0 -->
<g id="node6" class="node"><title>S5_0</title>
<ellipse fill="none" stroke="black" cx="18" cy="-288" rx="18" ry="18"/>
<text text-anchor="middle" x="18" y="-284.3" font-family="Times New Roman,serif" font-size="14.00">0</text>
</g>
<!-- S6_0 -->
<g id="node7" class="node"><title>S6_0</title>
<ellipse fill="none" stroke="black" cx="18" cy="-342" rx="18" ry="18"/>
<text text-anchor="middle" x="18" y="-338.3" font-family="Times New Roman,serif" font-size="14.00">0</text>
</g>
<!-- S7_0 -->
<g id="node8" class="node"><title>S7_0</title>
<ellipse fill="none" stroke="black" cx="18" cy="-396" rx="18" ry="18"/>
<text text-anchor="middle" x="18" y="-392.3" font-family="Times New Roman,serif" font-size="14.00">0</text>
</g>
<!-- S8_0 -->
<g id="node9" class="node"><title>S8_0</title>
<ellipse fill="none" stroke="black" cx="18" cy="-450" rx="18" ry="18"/>
<text text-anchor="middle" x="18" y="-446.3" font-family="Times New Roman,serif" font-size="14.00">0</text>
</g>
<!-- S8_1 -->
<g id="node10" class="node"><title>S8_1</title>
<ellipse fill="none" stroke="black" cx="155" cy="-450" rx="18" ry="18"/>
<ellipse fill="none" stroke="black" cx="155" cy="-450" rx="22" ry="22"/>
<text text-anchor="middle" x="155" y="-446.3" font-family="Times New Roman,serif" font-size="14.00">1</text>
</g>
<!-- S8_0&#45;&gt;S8_1 -->
<g id="edge1" class="edge"><title>S8_0&#45;&gt;S8_1</title>
<path fill="none" stroke="black" d="M36.0978,-450C57.7699,-450 95.5468,-450 122.499,-450"/>
<polygon fill="black" stroke="black" points="122.597,-453.5 132.597,-450 122.597,-446.5 122.597,-453.5"/>
<text text-anchor="middle" x="84.5" y="-453.8" font-family="Times New Roman,serif" font-size="14.00">ε : &lt;OOV&gt; | 0</text>
</g>
<!-- S8_1&#45;&gt;S8_1 -->
<g id="edge2" class="edge"><title>S8_1&#45;&gt;S8_1</title>
<path fill="none" stroke="black" d="M148.567,-471.399C147.866,-481.326 150.01,-490 155,-490 158.119,-490 160.126,-486.612 161.022,-481.647"/>
<polygon fill="black" stroke="black" points="164.529,-481.532 161.433,-471.399 157.535,-481.251 164.529,-481.532"/>
<text text-anchor="middle" x="155" y="-493.8" font-family="Times New Roman,serif" font-size="14.00">D : ε | 0</text>
</g>
<!-- S8_1&#45;&gt;S8_1 -->
<g id="edge3" class="edge"><title>S8_1&#45;&gt;S8_1</title>
<path fill="none" stroke="black" d="M144.387,-469.61C138.884,-488.025 142.422,-508 155,-508 165.318,-508 169.553,-494.558 167.704,-479.563"/>
<polygon fill="black" stroke="black" points="171.094,-478.677 165.613,-469.61 164.243,-480.116 171.094,-478.677"/>
<text text-anchor="middle" x="155" y="-511.8" font-family="Times New Roman,serif" font-size="14.00">V : ε | 0</text>
</g>
</g>
</svg>
